<svg width="191" height="146" viewBox="0 0 191 146" fill="none" xmlns="http://www.w3.org/2000/svg">
<path opacity="0.1" d="M66 131.798C84.2254 131.798 99 128.87 99 125.258C99 121.646 84.2254 118.719 66 118.719C47.7746 118.719 33 121.646 33 125.258C33 128.87 47.7746 131.798 66 131.798Z" fill="#F47738"/>
<path opacity="0.1" d="M110.973 38.3336C98.7281 37.9067 87.0661 33.9236 75.9302 29.5669C64.7942 25.2102 53.7641 20.3847 41.8127 18.0767C34.1258 16.5921 25.3339 16.3806 19.1416 20.5276C13.1801 24.5298 11.2541 31.4193 10.2192 37.8171C9.43969 42.6312 8.98183 47.6988 11.1159 52.206C12.5992 55.3353 15.229 57.9654 17.0491 60.9632C23.3814 71.3918 18.9051 84.2522 12.0449 94.4349C8.82859 99.2109 5.092 103.773 2.60788 108.852C0.123754 113.931 -1.02466 119.771 1.14919 124.966C3.30222 130.112 8.43506 133.969 13.9955 136.685C25.2885 142.202 38.5908 143.78 51.5714 144.676C80.2968 146.654 109.174 145.798 137.975 144.939C148.634 144.623 159.338 144.3 169.824 142.641C175.647 141.718 181.658 140.254 185.886 136.721C191.252 132.237 192.582 124.644 188.985 119.022C182.954 109.588 166.282 107.246 162.061 97.124C159.741 91.5515 162.123 85.3461 165.497 80.1795C172.731 69.0934 184.857 59.368 185.495 46.6982C185.933 37.9963 180.104 29.281 171.091 25.1625C161.645 20.8459 148.543 21.389 141.577 28.5339C134.397 35.8827 121.785 38.7129 110.973 38.3336Z" fill="#F47738"/>
<path d="M101 53.9502L95.2126 50.069L98.1318 45.746L82.8462 44.5337L77.3536 48.7589L70.4779 44.9246L64.7434 45.6106L64.6754 44.107C64.6044 42.5394 64.4461 40.977 64.2011 39.4269C64.2257 38.957 64.2427 38.4176 64.2408 37.8312C64.2408 35.3595 63.9045 32.0835 62.4269 29.8994L62.767 26.8583L60.0084 23.6161C60.4514 22.7382 60.9566 21.8928 61.52 21.0862C61.6145 20.9509 61.7089 20.8193 61.811 20.6915C65.3915 20.434 68.2162 17.5056 68.2162 13.9251C68.2162 13.7597 68.2162 13.5943 68.1973 13.4307C68.1973 13.365 68.1841 13.2973 68.1765 13.2315C68.5261 13.4195 68.8794 13.6074 69.2327 13.7954C69.2989 13.8894 69.3744 13.9833 69.4576 14.0942L69.4746 14.1149L69.5804 14.2446L69.6144 14.2841C69.6522 14.3292 69.6919 14.3724 69.7315 14.4175L69.758 14.4476C69.8581 14.5585 69.9639 14.6713 70.0773 14.7822C70.0908 14.7931 70.1034 14.805 70.1151 14.8179L70.2568 14.9494L70.2965 14.9851C70.4174 15.0923 70.5459 15.1957 70.6744 15.2934L70.7159 15.3235L70.8784 15.4344L70.9313 15.4682C70.9937 15.5058 71.0579 15.5452 71.1203 15.581L71.143 15.5941C71.2166 15.6336 71.2922 15.6712 71.3678 15.7069L71.4056 15.7219C71.4698 15.7495 71.5328 15.7758 71.5945 15.8009L71.6531 15.8215C71.7192 15.8441 71.7835 15.8648 71.8515 15.8836L71.8931 15.8948C71.9762 15.9155 72.0593 15.9324 72.1444 15.9456H72.1538C72.2339 15.9585 72.3146 15.9666 72.3957 15.97H72.4505C72.5228 15.9738 72.5954 15.9738 72.6677 15.97H72.715C72.8056 15.9648 72.8958 15.9542 72.9852 15.9381C73.4079 15.8828 73.8138 15.7379 74.1755 15.5133C74.2676 15.452 74.3493 15.3765 74.4174 15.2896C74.7953 14.7972 74.3796 14.2578 74.3796 14.2578C74.2322 13.9082 73.2761 13.6619 73.2761 13.6619C73.2761 13.6619 70.253 12.4064 70.253 11.4065C70.253 10.4065 69.4972 5.21896 61.6957 4.03296C61.6957 4.03296 56.6207 3.74915 55.1941 6.45195L55.1639 6.76772C54.7444 7.02898 54.3968 7.55337 53.983 7.7075C53.8042 7.74569 53.6318 7.80898 53.4709 7.89545V7.85974C53.4232 7.9013 53.384 7.95174 53.3557 8.00823C53.2668 8.18415 53.2135 8.37574 53.1989 8.57209C53.1563 8.81195 53.0726 9.04275 52.9513 9.25437C52.9176 9.31451 52.8797 9.37228 52.838 9.42729L52.8059 9.47804C53.0252 9.49505 53.2455 9.4596 53.4483 9.37466C53.4163 9.63199 53.3529 9.88447 53.2593 10.1265C53.3794 10.1303 53.4981 10.0998 53.6013 10.0385C53.7045 9.97719 53.7878 9.88769 53.8413 9.78065V9.76561L53.8658 9.73178C53.9134 9.64477 53.9526 9.55353 53.983 9.45924L53.9622 9.4818C54 9.35963 54.034 9.23558 54.0756 9.11528C54.0946 9.04753 54.126 8.98382 54.1682 8.92733C54.2186 8.87676 54.2803 8.83867 54.3482 8.81615C54.4161 8.79362 54.4884 8.78728 54.5593 8.79764L54.4818 10.4272H54.5158C54.4703 10.5458 54.4147 10.6602 54.3495 10.7693C54.0812 11.2016 53.5938 11.4967 53.4143 11.9703C53.3369 12.1988 53.3073 12.4406 53.3274 12.6808C53.3274 12.8218 53.3444 12.9646 53.3557 13.1056V13.0943C53.3821 13.4702 53.3897 13.8273 53.1856 14.1299C53.0458 14.3367 52.821 14.4927 52.7435 14.7276C52.7221 14.7931 52.7125 14.8618 52.7152 14.9306C52.7303 15.1366 52.7736 15.3396 52.8437 15.534C52.8445 15.5303 52.8445 15.5264 52.8437 15.5227C52.8908 15.6657 52.9018 15.818 52.8758 15.9663C52.7907 16.3422 52.3316 16.6561 52.3543 17.0151C52.353 17.0623 52.36 17.1094 52.3751 17.1542C52.4634 17.3295 52.6164 17.4642 52.8021 17.5301C53.0934 17.6948 53.428 17.7682 53.7619 17.7406C53.8871 17.7181 54.0081 17.6769 54.1209 17.6184C53.9887 17.921 53.8526 18.2199 53.7147 18.5037C53.6939 18.5488 53.6712 18.5939 53.6486 18.639C53.6486 18.639 52.4809 17.8627 51.8177 19.4453C51.6241 19.7742 51.4856 20.1322 51.4077 20.5054C51.3744 20.6547 51.3277 20.8006 51.2679 20.9415C50.9734 21.4373 50.5328 21.831 50.0057 22.0692C48.6529 22.6857 43.1886 29.4652 43.0922 31.2208C43.0449 31.906 42.9285 32.5848 42.7446 33.2469C42.3144 34.8061 42.2039 36.4354 42.4196 38.0379C42.4871 38.5558 42.599 39.067 42.754 39.566C43.3341 41.3196 43.7214 44.5919 43.7214 44.5919L44.3487 50.2719C44.3254 51.0559 44.3595 51.8405 44.4507 52.6195C43.8102 53.3469 41.2387 56.3786 42.2212 57.2038C42.977 57.8541 44.2996 57.7469 45.0421 57.6135C44.4167 59.1529 43.4323 61.8293 43.3019 63.6675C43.113 66.3873 43.625 69.9904 44.4356 71.3737C45.2462 72.7571 47.9481 76.3057 47.9481 76.3057C47.9481 76.3057 47.8215 81.1737 48.787 82.9424C49.7525 84.7111 50.1417 88.38 50.1417 88.38C50.1417 88.38 51.043 91.4775 50.5914 92.6165C50.1399 93.7555 51.4285 94.7028 50.0756 95.4603C48.7228 96.2177 46.992 113.29 46.992 113.29C46.992 113.29 46.2948 124.479 46.992 125.048C47.0293 125.075 47.0692 125.099 47.1111 125.118V128.877C47.1111 128.877 46.6274 129.666 48.5943 129.826C49.9415 129.933 53.76 130.176 56.0255 130.317L57.7808 130.426C57.7808 130.426 61.9376 131.249 63.7741 130.426C65.6106 129.602 68.8662 129.621 68.3825 127.447C68.3183 127.151 68.2324 126.86 68.1255 126.576C67.5946 125.227 66.6933 125.073 65.0325 124.697C64.9361 124.676 64.8435 124.657 64.7585 124.642C63.0089 124.34 62.4345 125.15 61.4539 124.095C60.6017 123.184 57.8885 122.163 56.9645 121.84C56.9872 121.772 57.0156 121.706 57.0382 121.637C56.7766 121.593 56.5333 121.475 56.3372 121.297L58.8408 121.455L60.3315 121.547C60.3315 121.547 63.8648 122.248 65.433 121.547C67.0013 120.846 69.7599 120.864 69.348 119.017C69.2937 118.765 69.2211 118.517 69.1307 118.276C68.6791 117.13 67.912 117.004 66.5006 116.686C66.4193 116.669 66.3438 116.652 66.2682 116.639C64.7812 116.382 64.2937 117.07 63.4605 116.175C62.7463 115.412 60.4921 114.557 59.6816 114.265C59.6816 113.848 59.1147 113.254 58.7576 112.658C58.3382 111.963 59.1128 109.529 59.1128 109.529L59.555 99.4299C59.7233 99.3553 59.9014 99.3047 60.084 99.2795C60.084 99.2795 62.0831 97.3812 61.6315 95.3588C61.5395 94.7471 61.4915 94.1296 61.4879 93.5112C62.1454 92.9041 63.0504 92.0075 63.3074 91.4549C63.7269 90.5546 63.3074 86.1922 63.3074 86.1922V69.5111L66.6517 69.8475L69.6862 70.1577L70.6101 70.2516L73.6446 70.5561L80.6185 71.2572L86.9028 70.0731L89.6218 69.5618L95.2126 68.5093V54.9013L101 53.9502ZM54.9712 8.85779L54.5819 8.81644C54.7104 8.82207 54.8465 8.84651 54.9712 8.85779Z" fill="url(#paint0_linear_1887_3365)"/>
<path d="M87.8361 62.0155C85.9233 64.2567 79.0465 63.0695 79.0465 63.0695L73.7173 58.9864L73 58.4335L74.2032 56.3411C74.2032 56.3411 74.5858 56.4272 75.2419 56.5807C78.6869 57.3998 89.4506 60.1313 87.8361 62.0155Z" fill="#EFB7B9"/>
<path opacity="0.1" d="M76 56.5233C75.6846 57.0332 74.8205 57.7969 73.9615 58.3532L73 57.9327L74.6128 56.3411C74.6128 56.3411 75.1308 56.4066 76 56.5233Z" fill="black"/>
<path d="M55.7503 28.2493C55.7503 28.2493 50.7641 30.3872 51.0087 35.6372C51.1848 39.0195 51.566 42.3889 52.1504 45.728C52.1504 45.728 51.131 53.6284 55.3756 55.6649C59.6201 57.7015 63.5481 59.3758 63.5481 59.3758C63.5481 59.3758 70.1887 60.0665 71.0139 60.3518C71.8391 60.6372 74.4176 56.275 73.9419 55.5955C73.4662 54.916 67.3713 53.4914 66.5946 52.3576C65.8179 51.2239 64.0219 50.5238 64.0219 50.5238C64.0219 50.5238 62.1676 49.4389 62.0413 48.4591C61.9151 47.4793 62.4044 46.7491 62.5287 46.3193C62.653 45.8895 62.9675 41.7394 62.9675 41.7394C62.9675 41.7394 65.0607 26.9673 55.7503 28.2493Z" fill="#DCE6F2"/>
<path opacity="0.1" d="M60 45.2739C60 45.2739 54.5043 46.2508 55.0363 48.2922C55.0363 48.2922 57.0314 46.0885 60 45.2739Z" fill="black"/>
<path opacity="0.1" d="M60 45.2739C60 45.2739 56.3843 49.0958 57.0918 49.2917C57.7992 49.4875 60 45.2739 60 45.2739Z" fill="black"/>
<path opacity="0.1" d="M61.9332 46.28C61.9332 46.28 60.3383 49.5062 61.3186 49.2877C62.2989 49.0692 61.9332 46.28 61.9332 46.28Z" fill="black"/>
<path opacity="0.1" d="M75.4954 55.5214L75.0943 55.411C75.2086 55.0489 75.2405 54.7557 75.1467 54.6199C74.6876 53.9646 68.8081 52.5924 68.0603 51.4972C67.3124 50.402 65.5769 49.7286 65.5769 49.7286C65.5769 49.7286 63.787 48.6823 63.6652 47.7374C63.5434 46.7924 64.0157 46.0882 64.1356 45.6737C64.2556 45.2591 64.5592 41.2549 64.5592 41.2549C64.5592 41.2549 66.574 27.0101 57.587 28.2465C57.587 28.2465 52.774 30.3102 53.0083 35.3734C53.1783 38.6355 53.5469 41.885 54.1122 45.1053C54.1122 45.1053 53.1282 52.7246 57.2253 54.6887C61.3224 56.6528 65.114 58.2675 65.114 58.2675C65.114 58.2675 71.522 58.9319 72.3204 59.2089C72.6222 59.3139 73.1676 58.7726 73.7017 58.0286L74.0053 58.3019L79.2269 63.0194C79.2269 63.0194 85.9648 64.3934 87.8391 61.803C89.4228 59.6234 78.8783 56.4664 75.4954 55.5214Z" fill="black"/>
<path d="M54.3249 7.97891C54.1094 8.01006 53.9031 8.06901 53.7153 8.15308C53.4952 8.28818 53.4952 8.51932 53.4402 8.72117C53.3755 9.00195 53.225 9.26808 53 9.49924C53.2504 9.51283 53.5016 9.48214 53.7329 9.40971C53.6952 9.63251 53.6213 9.85112 53.5128 10.0608C53.6499 10.0634 53.7851 10.0367 53.9023 9.98383C54.0194 9.931 54.1134 9.8543 54.173 9.76294C54.2895 9.57951 54.3816 9.38817 54.4481 9.19159C54.4688 9.1328 54.5047 9.07752 54.5538 9.02882C54.7562 8.85139 55.1326 8.93115 55.4451 8.95394C55.7052 8.97016 55.9664 8.93464 56.2017 8.85107C56.4369 8.76749 56.6377 8.63891 56.7832 8.47863C57.1155 8.10587 57.1353 7.152 56.343 7.05108C55.5155 6.95016 55.0005 7.79334 54.3249 7.97891Z" fill="#965D7B"/>
<g opacity="0.1">
<path opacity="0.1" d="M53.6301 8.12616C53.6471 8.03345 53.6584 7.93695 53.6792 7.84424C53.4999 8.00128 53.4905 8.26806 53.4433 8.50457C53.4196 8.64103 53.3823 8.77477 53.332 8.9038C53.4806 8.66634 53.5818 8.40226 53.6301 8.12616Z" fill="black"/>
<path opacity="0.1" d="M53.6888 9.68578C53.7828 9.44233 53.8462 9.1881 53.8775 8.92896C53.6886 9.00869 53.4841 9.04428 53.2795 9.03302C53.2199 9.16609 53.1472 9.29286 53.0625 9.41143C53.2764 9.42803 53.4912 9.393 53.6888 9.30926C53.6575 9.56841 53.5941 9.82264 53.5002 10.0661C53.6177 10.0689 53.7335 10.0377 53.8338 9.9763C53.9342 9.91491 54.0148 9.82589 54.0661 9.71984C54.1131 9.63384 54.1511 9.54316 54.1793 9.44927C54.124 9.52686 54.05 9.5892 53.9643 9.63054C53.8786 9.67188 53.7838 9.69088 53.6888 9.68578Z" fill="black"/>
<path opacity="0.1" d="M55.3471 8.40008C55.0792 8.37359 54.7547 8.28088 54.5811 8.48712C54.5398 8.54419 54.5091 8.60829 54.4906 8.67632C54.4736 8.72552 54.4585 8.7766 54.4453 8.82769C54.6245 8.68578 54.9151 8.76147 55.1584 8.78606C55.3813 8.80432 55.605 8.76276 55.8066 8.66567C56.0082 8.56858 56.1803 8.41945 56.3055 8.23358C56.3626 8.14171 56.4053 8.0415 56.4319 7.93652C56.3027 8.0969 56.1362 8.22303 55.9471 8.30385C55.7579 8.38467 55.5519 8.41771 55.3471 8.40008Z" fill="black"/>
</g>
<path d="M59.0127 23.1401L62 26.6452L61.6102 30.1828L58 24.6691L59.0127 23.1401Z" fill="#DCE6F2"/>
<path opacity="0.1" d="M62 26.6452L61.6335 29.9725L61.61 30.1828L58.3508 25.2061L58 24.6691L58.1019 24.5143L59.0113 23.1401L59.2131 23.3771L62 26.6452Z" fill="black"/>
<path d="M64.4394 18.7701C63.3416 19.0274 62.2928 19.9105 61.3801 20.9831C60.7632 21.7231 60.2115 22.4981 59.7292 23.3021C59.4292 23.7923 59.1654 24.2634 58.9462 24.6737L58.7931 24.9657C58.4229 25.6802 58.2165 26.1583 58.2165 26.1583C58.2165 26.1583 49.813 20.9953 51.1427 20.6476C51.5894 20.5311 52.1766 19.7489 52.7574 18.7632L52.8297 18.638C53.1978 18.0053 53.5595 17.2995 53.8807 16.6354C54.5381 15.2708 55.0253 14.0852 55.0253 14.0852C55.0253 14.0852 67.7902 17.9879 64.4394 18.7701Z" fill="#EFB7B9"/>
<path d="M69 14.0852C69 14.0852 70.5402 16.3811 72.6089 16.068C74.6777 15.755 73.8266 14.8352 73.8266 14.8352L69 14.0852Z" fill="#0B4B66"/>
<path d="M65.0774 120.446C63.529 121.086 60.0279 120.446 60.0279 120.446L58.5523 120.363C56.6359 120.252 53.428 120.064 52.2935 119.981C50.6378 119.858 51.044 119.243 51.044 119.243V115.531L59.0774 113.688C59.0774 113.688 62.2527 114.672 63.1228 115.531C63.9487 116.35 64.4316 115.72 65.9053 115.956C65.9781 115.968 66.0548 115.982 66.1353 116C67.5342 116.289 68.2931 116.404 68.7415 117.454C68.8316 117.675 68.904 117.901 68.958 118.131C69.372 119.821 66.6239 119.809 65.0774 120.446Z" fill="#A36468"/>
<path opacity="0.1" d="M69 117.41C68.7079 117.596 68.4009 117.756 68.0823 117.889C67.013 118.387 65.9961 118.993 64.9151 119.463C63.8341 119.932 62.6695 120.267 61.499 120.178C60.8866 120.132 60.2605 119.98 59.6753 120.158C59.3134 120.3 58.9725 120.493 58.6623 120.731C56.7181 120.604 53.4633 120.39 52.3123 120.295C50.6325 120.154 51.0447 119.453 51.0447 119.453V118.957C51.1049 118.957 51.173 118.94 51.2508 118.934C51.6531 118.927 52.0538 118.988 52.4368 119.114C53.2806 119.348 54.1205 119.578 54.9643 119.807C55.0337 119.54 55.1557 119.291 55.3228 119.073C55.49 118.856 55.6987 118.676 55.9365 118.543C56.4181 118.283 56.9586 118.156 57.5035 118.177C58.812 118.195 60.0505 118.827 61.3571 118.89C61.7224 118.924 62.0901 118.861 62.4245 118.708C62.6034 118.617 62.7608 118.484 62.9358 118.383C63.2159 118.245 63.5117 118.143 63.8166 118.08C64.6734 117.862 65.5146 117.586 66.3344 117.252C66.5677 117.158 66.8399 116.99 66.8088 116.736C66.768 116.4 66.2489 116.36 66.1128 116.051C66.0887 115.995 66.0777 115.935 66.0803 115.874C66.083 115.813 66.0995 115.754 66.1283 115.7C66.2022 115.714 66.28 115.73 66.3616 115.75C67.7751 116.081 68.545 116.211 69 117.41Z" fill="black"/>
<path d="M62.8574 130.385C61.2242 131.3 57.5279 130.385 57.5279 130.385L55.9721 130.274C53.9572 130.116 50.5636 129.852 49.3653 129.728C47.6169 129.551 48.0467 128.675 48.0467 128.675V123.364L56.5274 120.731C56.5274 120.731 59.8798 122.136 60.7978 123.364C61.6694 124.533 62.1732 123.634 63.7359 123.971C63.8133 123.988 63.8941 124.009 63.9783 124.032C65.4551 124.453 66.2562 124.611 66.729 126.111C66.8247 126.426 66.9011 126.749 66.9576 127.078C67.384 129.492 64.4906 129.473 62.8574 130.385Z" fill="#A36468"/>
<path opacity="0.1" d="M67 125.792C66.6918 126.015 66.3679 126.208 66.0319 126.368C64.9033 126.964 63.8287 127.692 62.6879 128.255C61.5471 128.819 60.3173 129.219 59.0805 129.114C58.4351 129.06 57.774 128.872 57.1617 129.09C56.7781 129.263 56.417 129.497 56.0889 129.785C54.0445 129.634 50.6011 129.381 49.3853 129.262C47.6113 129.092 48.0474 128.251 48.0474 128.251V127.657C48.1196 127.644 48.1924 127.634 48.2654 127.629C48.6904 127.62 49.1137 127.693 49.5179 127.845L52.185 128.678C52.2593 128.357 52.3894 128.056 52.5672 127.795C52.7451 127.535 52.967 127.318 53.2194 127.16C53.7279 126.846 54.2991 126.694 54.8749 126.72C56.2564 126.742 57.5629 127.5 58.9427 127.576C59.327 127.617 59.7138 127.543 60.0661 127.36C60.2562 127.249 60.415 127.089 60.6069 126.97C60.9019 126.803 61.2144 126.68 61.5366 126.606C62.4362 126.343 63.3197 126.011 64.1811 125.612C64.4271 125.499 64.7149 125.297 64.6817 124.994C64.6381 124.589 64.0904 124.541 63.9456 124.169C63.9212 124.102 63.9101 124.029 63.9131 123.957C63.9161 123.884 63.9332 123.813 63.963 123.749C64.0415 123.765 64.1235 123.785 64.209 123.807C65.7074 124.195 66.5203 124.353 67 125.792Z" fill="black"/>
<path d="M59.9399 97.5906L59.3745 109.35C59.3745 109.35 58.5274 111.752 58.9869 112.439C59.4465 113.125 60.2216 113.81 59.9399 114.217C59.6583 114.623 56.2698 119.014 55.1749 117.329C54.0801 115.645 53 108.345 53 108.345L54.0102 99.3294L59.9399 97.5906Z" fill="#0B4B66"/>
<path d="M62.5658 67.408L63.835 69.2856V85.6166C63.835 85.6166 64.2062 89.97 63.835 90.869C63.4638 91.7681 61.5822 93.5663 61.5822 93.5663L60 84.5755L60.3421 75.0643L62.5658 67.408Z" fill="#0B4B66"/>
<path opacity="0.1" d="M59.9399 97.5906L59.3745 109.35C59.3745 109.35 58.5274 111.752 58.9869 112.439C59.4465 113.125 60.2216 113.81 59.9399 114.217C59.6583 114.623 56.2698 119.014 55.1749 117.329C54.0801 115.645 53 108.345 53 108.345L54.0102 99.3294L59.9399 97.5906Z" fill="black"/>
<path opacity="0.1" d="M62.5658 67.408L63.835 69.2856V85.6166C63.835 85.6166 64.2062 89.97 63.835 90.869C63.4638 91.7681 61.5822 93.5663 61.5822 93.5663L60 84.5755L60.3421 75.0643L62.5658 67.408Z" fill="black"/>
<path d="M64 60.9077V69.788L62.3911 76.7008C62.3911 76.7008 61.8754 93.3825 62.3254 95.4108C62.7755 97.4392 60.7803 99.3439 60.7803 99.3439C60.7803 99.3439 59.6214 99.4714 59.6214 100.358C59.6214 101.245 57.69 103.783 57.69 103.783L57.7537 108.73C57.7537 108.73 58.592 117.991 57.3037 119.766C56.0154 121.542 57.7537 121.797 57.7537 121.797C56.1448 126.997 48.4191 125.792 47.7218 125.222C47.0246 124.651 47.7218 113.424 47.7218 113.424C47.7218 113.424 49.4485 96.2994 50.8005 95.5383C52.1525 94.7772 50.8662 93.8258 51.3162 92.6841C51.7663 91.5425 50.8662 88.4352 50.8662 88.4352C50.8662 88.4352 50.4799 84.7553 49.5142 82.98C48.5485 81.2047 48.676 76.3202 48.676 76.3202C48.676 76.3202 45.9719 72.7678 45.1685 71.373C44.365 69.9783 43.8474 66.363 44.0405 63.6344C44.1718 61.7906 45.1549 59.1058 45.7788 57.5607C46.0782 56.8206 46.2945 56.3411 46.2945 56.3411L46.478 56.3886L57.0275 59.1096L64 60.9077Z" fill="#0B4B66"/>
<path opacity="0.1" d="M64.496 18.8724C63.5089 19.1346 62.5658 20.0347 61.7451 21.1278H61.5309C60.328 21.1286 59.1462 20.8353 58.1049 20.2775C57.0636 19.7197 56.1998 18.9172 55.6007 17.9511C55.3503 17.5508 55.1488 17.1259 55 16.6843C55.5911 15.2935 56.0292 14.0852 56.0292 14.0852C56.0292 14.0852 67.5089 18.0751 64.496 18.8724Z" fill="black"/>
<path d="M67 14.0823C67.0015 15.1589 66.7922 16.2215 66.3882 17.1884C65.9841 18.1552 65.3962 19.0004 64.6697 19.6589C63.9432 20.3173 63.0974 20.7715 62.1976 20.9864C61.2978 21.2013 60.3679 21.1712 59.4795 20.8984C58.5912 20.6255 57.7681 20.1173 57.0737 19.4128C56.3793 18.7083 55.8321 17.8263 55.4743 16.8348C55.1164 15.8433 54.9575 14.7687 55.0097 13.6938C55.0619 12.619 55.3239 11.5725 55.7754 10.635C55.9573 10.2541 56.1697 9.89436 56.4098 9.56069C56.8056 9.0079 57.2707 8.52888 57.7894 8.14006C58.6654 7.48743 59.6708 7.11237 60.7074 7.05152C61.744 6.99068 62.7764 7.24614 63.7036 7.79293C64.6308 8.33973 65.4212 9.15916 65.9975 10.1712C66.5738 11.1832 66.9163 12.3532 66.9916 13.5668C66.995 13.7399 67 13.9111 67 14.0823Z" fill="#EFB7B9"/>
<path opacity="0.1" d="M62 29.9877L61.9753 30.1827L58.5484 25.5744C58.1898 26.3029 57.9899 26.7903 57.9899 26.7903C57.9899 26.7903 49.8502 21.5191 51.1382 21.1646C51.5709 21.0459 52.1397 20.2483 52.7022 19.2433L52.7723 19.1157C53.3699 20.6471 56.8421 23.7081 58.2867 24.9346C58.4536 25.0764 58.5916 25.1933 58.6988 25.2784L58.9193 25.4557L59.0347 25.5549C59.5602 26.0211 61.7774 28.0771 62 29.9877Z" fill="black"/>
<path d="M65 47.36L64.6446 58.3995L64.5821 60.3653C64.5821 60.3653 60.372 59.9884 56.4431 59.5737C53.2797 59.2401 50.2978 58.8801 49.8389 58.669C49.2531 58.4032 47.9975 58.1978 47.0075 58.0677C46.242 57.9678 45.6405 57.9151 45.6405 57.9151C45.6405 57.9151 45.416 57.9791 45.0703 58.0395C44.3166 58.1714 42.9926 58.2788 42.2213 57.6323C41.2352 56.8049 43.8265 53.7986 44.4728 53.0767L44.6154 52.9203L44.3713 50.7433L43.7366 45.0982C43.7366 45.0982 43.3461 41.8469 42.7603 40.1034C42.6036 39.6077 42.4906 39.1002 42.4224 38.5861C42.2048 36.9938 42.3163 35.3756 42.7505 33.825C42.936 33.1662 43.0537 32.4913 43.102 31.8102C43.1996 30.0667 48.7161 23.3284 50.083 22.7158C50.6979 22.4391 51.1927 21.9628 51.4812 21.3701C51.5764 21.1837 51.6479 20.9869 51.694 20.7839C52.2799 18.3336 53.762 19.3062 53.762 19.3062C54.1193 21.2231 59.6515 26.297 59.6515 26.297L59.7608 26.4026C60.3095 26.9454 62.7544 29.4937 62.5806 31.6688C62.5458 32.4783 62.6711 33.2869 62.9496 34.0512C64.0749 37.4712 64.7218 41.0209 64.8731 44.6063L65 47.36Z" fill="#DCE6F2"/>
<path opacity="0.1" d="M56.9674 33.2009C56.9674 33.2009 55.9187 36.3778 55.1322 36.8917C54.3456 37.4056 57.342 37.9755 56.9674 33.2009Z" fill="black"/>
<path opacity="0.1" d="M58 40.2437C58 40.2437 56 40.5983 56 41.1304C56 41.6624 58 40.2437 58 40.2437Z" fill="black"/>
<path opacity="0.1" d="M61 42.2559C61 42.2559 57.1923 52.9907 56.1278 53.316C55.0633 53.6413 61 42.2559 61 42.2559Z" fill="black"/>
<path opacity="0.1" d="M60 26.5606L55.922 28.1705L51 21.419C51.1034 21.2286 51.181 21.0275 51.2311 20.8201C51.8673 18.3167 53.4769 19.3103 53.4769 19.3103C53.865 21.2688 59.8728 26.4528 59.8728 26.4528L60 26.5606Z" fill="black"/>
<path d="M60 24.9062L55.922 26.1583L51 20.9071C51.1034 20.759 51.181 20.6026 51.2311 20.4413C51.8673 18.4942 53.4769 19.2671 53.4769 19.2671C53.865 20.7903 59.8728 24.8223 59.8728 24.8223L60 24.9062Z" fill="#DCE6F2"/>
<path opacity="0.1" d="M64.9394 59.0463C64.9394 59.0463 60.855 58.679 57.0434 58.2749L63.8823 60.0104V62.0305C63.583 62.2932 63.3234 62.4291 63.1548 62.3593C62.3667 62.0379 55.9351 61.0278 55.9351 61.0278C55.9351 61.0278 52.1993 59.1913 48.168 56.9876C48.0701 56.935 47.9753 56.8774 47.8838 56.8149C47.4137 56.5055 47.0087 56.1123 46.6903 55.6561C45.9458 54.6111 45.5821 53.2687 45.4248 51.9519C45.3364 51.1973 45.3035 50.4375 45.3263 49.6783C45.3458 48.8175 45.4269 47.959 45.5688 47.1091C45.1789 43.8171 44.9892 40.5057 45.0005 37.192C45.0478 32.0499 50.0207 30.2134 50.0207 30.2134C59.1614 29.4329 56.3273 43.7575 56.3273 43.7575C56.3273 43.7575 55.7987 47.7978 55.6548 48.211C55.5108 48.6242 54.9936 49.3129 55.0637 50.277C55.1338 51.2412 56.8805 52.3945 56.8805 52.3945C56.8805 52.3945 58.5854 53.1695 59.2883 54.3173C59.7998 55.1639 63.1226 56.3117 65 57.1308L64.9394 59.0463Z" fill="black"/>
<path opacity="0.1" d="M66.9999 10.1352C67.0031 10.4146 66.9429 10.6914 66.8234 10.9461C66.7329 11.1539 66.6279 11.3557 66.5092 11.55C66.3234 11.9074 66.0597 12.2221 65.736 12.4728C65.3282 12.7527 64.8128 12.8307 64.3239 12.9444C63.8349 13.0581 63.3265 13.2396 63.0476 13.6399C62.8965 13.8973 62.7954 14.179 62.7493 14.4711C62.7025 14.7631 62.5812 15.0393 62.3963 15.2752C62.2999 15.3904 62.1665 15.4715 62.017 15.5059C61.8675 15.5403 61.7103 15.526 61.5702 15.4652C61.4225 15.3696 61.3106 15.2311 61.2507 15.07C61.0494 14.634 60.9982 14.1505 60.917 13.6806C60.8358 13.2107 60.7211 12.7273 60.421 12.349C60.1209 11.9707 59.5896 11.7213 59.1183 11.8689C58.9606 11.9273 58.8167 12.0156 58.6954 12.1288C58.574 12.2419 58.4777 12.3773 58.4122 12.5271C58.2818 12.8269 58.1922 13.1416 58.1457 13.4635C57.9268 14.6148 57.6685 15.7593 57.3708 16.897C57.3617 16.9436 57.3418 16.9877 57.3125 17.0259C57.2656 17.0708 57.2023 17.0964 57.136 17.0971C56.7406 17.148 56.3611 16.8817 55.9622 16.9105C55.9211 16.9132 55.8803 16.9194 55.8404 16.9292C55.1954 15.8519 54.9106 14.6101 55.0245 13.3721C55.1385 12.1341 55.6458 10.9597 56.4776 10.008L56.5094 9.9995C56.7747 9.90897 57.0159 9.76296 57.2154 9.57201C57.4703 9.32696 57.7062 9.06447 57.9215 8.7866L58.0627 8.61696C58.4685 8.14722 58.9306 7.72528 59.4396 7.35995C59.5785 7.25057 59.7379 7.16766 59.9091 7.11567C60.0557 7.08823 60.2059 7.08365 60.3539 7.1021C60.9636 7.17242 61.5781 7.19455 62.1915 7.16825C62.6189 7.10369 63.0497 7.06178 63.4819 7.04272C64.5992 7.07326 65.5524 7.83154 66.2585 8.66276C66.638 9.08855 66.9769 9.5788 66.9999 10.1352Z" fill="black"/>
<path d="M54.8676 11.1053C54.616 11.4784 54.1616 11.732 53.9915 12.141C53.7417 12.735 54.1635 13.4745 53.7761 14.0047C53.6476 14.183 53.4358 14.3155 53.3634 14.52C53.2403 14.8653 53.577 15.2334 53.4901 15.5885C53.4032 15.9435 52.8856 16.2429 53.0231 16.5898C53.1044 16.7411 53.247 16.8583 53.4213 16.917C53.6956 17.0593 54.0113 17.1226 54.3264 17.0987C54.8205 17.025 55.188 16.5865 55.6893 16.5538C56.0966 16.5276 56.4858 16.7829 56.8912 16.7354C56.9592 16.7333 57.0238 16.7082 57.0722 16.6651C57.103 16.6286 57.1235 16.5859 57.132 16.5407C57.4361 15.4445 57.7015 14.3406 57.9284 13.2291C57.9746 12.9186 58.0659 12.6149 58.1999 12.3259C58.2676 12.1818 58.3666 12.0514 58.4909 11.9423C58.6153 11.8333 58.7625 11.7479 58.9239 11.6911C59.4072 11.5504 59.9503 11.7893 60.2598 12.1541C60.5693 12.519 60.687 12.9853 60.7702 13.4385C60.8535 13.8918 60.906 14.3581 61.1105 14.7786C61.1727 14.9345 61.288 15.0686 61.44 15.1614C61.7115 15.3038 62.0771 15.1909 62.2853 14.9782C62.4759 14.7506 62.6004 14.4833 62.6473 14.201C62.6945 13.9197 62.7982 13.6485 62.9532 13.4009C63.2392 13.0148 63.7623 12.8397 64.2619 12.7301C64.7614 12.6204 65.2882 12.5435 65.7099 12.2736C66.0414 12.032 66.3117 11.7291 66.5027 11.3851C66.7706 10.963 67.0204 10.5049 66.9987 10.0189C66.9751 9.48881 66.6276 9.01595 66.2565 8.60363C65.5325 7.80191 64.5533 7.07054 63.4075 7.04272C62.9642 7.05948 62.5224 7.09991 62.0843 7.1638C61.4553 7.18937 60.825 7.16748 60.2001 7.09835C60.0481 7.08192 59.8942 7.08689 59.7439 7.11308C59.5681 7.16161 59.4049 7.24175 59.2642 7.34869C58.7418 7.70047 58.2673 8.10689 57.8506 8.55946C57.5819 8.88152 57.2904 9.18758 56.9781 9.47572C56.7734 9.66018 56.5262 9.80153 56.2541 9.88967C56.0731 9.93548 55.8921 9.90276 55.7201 9.95348C55.1862 10.1056 55.1156 10.7356 54.8676 11.1053Z" fill="#965D7B"/>
<path opacity="0.1" d="M72.6096 16.0678C71.2583 16.2725 70.1385 15.3717 69.5186 14.7145C69.3282 14.5149 69.1549 14.3047 69 14.0852L73.6383 14.8064L73.8258 14.8356C73.8258 14.8356 74.6788 15.7559 72.6096 16.0678Z" fill="black"/>
<g opacity="0.1">
<path opacity="0.1" d="M53.0983 15.3896C53.1194 15.1422 53.0819 14.8932 52.9889 14.6631C52.9889 14.682 52.9719 14.7009 52.9662 14.7198C52.8851 14.9734 52.9945 15.2364 53.0643 15.4994C53.0793 15.464 53.0907 15.4273 53.0983 15.3896Z" fill="black"/>
<path opacity="0.1" d="M53.5506 12.2952C53.5312 12.5568 53.5363 12.8197 53.5657 13.0804C53.5851 12.8187 53.58 12.5559 53.5506 12.2952Z" fill="black"/>
<path opacity="0.1" d="M66.6493 10.5268C66.4507 10.9254 66.1689 11.2765 65.823 11.5561C65.3872 11.8683 64.8382 11.9553 64.3137 12.0821C63.7893 12.2088 63.2478 12.4113 62.9498 12.8578C62.7885 13.145 62.6805 13.4591 62.6309 13.7849C62.5818 14.1113 62.4521 14.4203 62.2536 14.6836C62.0367 14.9296 61.6556 15.0621 61.3726 14.8956C61.2142 14.7882 61.094 14.6332 61.0292 14.4528C60.8161 13.9666 60.7595 13.4292 60.6746 12.9032C60.5897 12.3772 60.4633 11.8399 60.1426 11.4179C59.8218 10.996 59.254 10.7179 58.7503 10.8825C58.5818 10.9479 58.4282 11.0465 58.2986 11.1727C58.169 11.2988 58.0659 11.4498 57.9956 11.6166C57.856 11.9508 57.7608 12.3019 57.7127 12.661C57.4775 13.9464 57.2008 15.2229 56.8826 16.4906C56.8737 16.5429 56.8524 16.5922 56.8203 16.6344C56.7698 16.6842 56.7025 16.7133 56.6317 16.7157C56.2091 16.7706 55.8035 16.4754 55.379 16.5057C54.8564 16.5435 54.4734 17.0506 53.9584 17.1339C53.6299 17.1634 53.3003 17.09 53.0151 16.9239C52.884 16.8673 52.7663 16.7834 52.6699 16.6779C52.6257 16.7413 52.5965 16.8139 52.5844 16.8903C52.5723 16.9666 52.5777 17.0447 52.6001 17.1187C52.6832 17.2949 52.8324 17.4309 53.0151 17.4971C53.3003 17.6633 53.6299 17.7367 53.9584 17.7072C54.4734 17.6239 54.8564 17.1168 55.379 17.079C55.8035 17.0487 56.2091 17.3439 56.6317 17.289C56.7025 17.2866 56.7698 17.2575 56.8203 17.2077C56.8524 17.1655 56.8737 17.1161 56.8826 17.0639C57.1995 15.8025 57.4762 14.526 57.7127 13.2343C57.7608 12.8752 57.856 12.5241 57.9956 12.1899C58.0659 12.0231 58.169 11.8721 58.2986 11.746C58.4282 11.6198 58.5818 11.5212 58.7503 11.4558C59.254 11.2912 59.82 11.5693 60.1426 11.9912C60.4652 12.4132 60.5878 12.9524 60.6746 13.4765C60.7613 14.0006 60.8161 14.5398 61.0292 15.0261C61.094 15.2065 61.2142 15.3615 61.3726 15.4689C61.6556 15.6335 62.0367 15.5029 62.2536 15.2569C62.4521 14.9936 62.5818 14.6846 62.6309 14.3582C62.6805 14.0324 62.7885 13.7183 62.9498 13.4311C63.2478 12.9846 63.7931 12.784 64.3137 12.6554C64.8344 12.5267 65.3834 12.4415 65.823 12.1294C66.1689 11.8497 66.4507 11.4987 66.6493 11.1001C66.9285 10.6138 67.1889 10.084 67.1662 9.52209C67.1625 9.44984 67.155 9.37784 67.1436 9.3064C67.0526 9.73945 66.8852 10.1527 66.6493 10.5268Z" fill="black"/>
</g>
<path opacity="0.1" d="M66.2673 10.9323C66.6895 11.9004 66.9398 12.9773 67 14.0853C65.533 13.0237 64.1533 11.858 63.4568 11.4525C62.2434 10.7454 57.7057 10.8516 56 10.9174C56.1784 10.5064 56.3868 10.1182 56.6224 9.75812C57.0121 9.1611 57.4702 8.64417 57.9807 8.22512C58.6568 7.67177 59.4133 7.30204 60.204 7.13853C60.9947 6.97502 61.8029 7.02117 62.5793 7.27416C63.3556 7.52714 64.0838 7.98165 64.7194 8.60989C65.3549 9.23814 65.8844 10.0269 66.2756 10.928L66.2673 10.9323Z" fill="black"/>
<path d="M61.8707 4.03229C61.8707 4.03229 57.025 3.77183 55.6627 6.2462L55.443 8.43928L55.0738 8.40108L55 9.89264C55 9.89264 62.4061 9.58877 64.0914 10.3042C65.7768 11.0196 71.0139 14.6243 73.1127 14.0166C75.2116 13.4089 72.9281 12.8445 72.9281 12.8445C72.9281 12.8445 70.0392 11.6933 70.0392 10.7904C70.0392 9.88743 69.3229 5.11754 61.8707 4.03229Z" fill="#0B4B66"/>
<path opacity="0.1" d="M51 92.5601C51 92.5601 55.1875 95.815 57 95.5646C57 95.5646 51.875 95.2141 51 92.5601Z" fill="black"/>
<path opacity="0.1" d="M51 93.5662C51 93.5662 51.4627 95.7805 52.6967 95.5633C53.9307 95.3461 51 93.5662 51 93.5662Z" fill="black"/>
<path opacity="0.1" d="M57 120.731C57 120.731 52.297 123.668 53.0901 123.747C53.8832 123.827 57 120.731 57 120.731Z" fill="black"/>
<path d="M62 50.7132L77 48.2922V62.3775L62.7481 61.6375L62 50.7132Z" fill="#F47738"/>
<path opacity="0.05" d="M62 50.7132L77 48.2922V62.3775L62.7481 61.6375L62 50.7132Z" fill="black"/>
<path d="M77 48.2922L94 49.6273L93.0592 61.8848L77 62.3775V48.2922Z" fill="#F47738"/>
<path opacity="0.1" d="M77 48.2922L94 49.6273L93.0592 61.8848L77 62.3775V48.2922Z" fill="black"/>
<path d="M82.2853 44.2678L77 48.1062L94.1907 49.2983L97 45.3702L82.2853 44.2678Z" fill="#F47738"/>
<path d="M57 46.8301L70.2189 45.2739L77 49.0002L62.3166 51.3105L57 46.8301Z" fill="#F47738"/>
<path d="M80 52.4639V70.4262L73.0841 69.7594L70.0758 69.4711L69.1594 69.381L66.153 69.0908L62 68.6907V51.3105L76.7616 52.2549L80 52.4639Z" fill="#F47738"/>
<path d="M94 49.2983V67.6852L88.6364 68.7351L86.0278 69.2458L80 70.4262V51.5721L94 49.2983Z" fill="#F47738"/>
<path opacity="0.05" d="M94 49.2983V67.6852L88.6364 68.7351L86.0278 69.2458L80 70.4262V51.5721L94 49.2983Z" fill="black"/>
<path d="M57 54.8664L62.2664 51.3105L80 52.3953L77.3895 56.341L57 54.8664Z" fill="#F47738"/>
<path opacity="0.1" d="M57 54.8664L62.2664 51.3105L80 52.3953L77.3895 56.341L57 54.8664Z" fill="white"/>
<path d="M93.6041 49.2983L80 51.7867L84.4277 56.341L99 53.5338L93.6041 49.2983Z" fill="#F47738"/>
<path opacity="0.1" d="M93.6041 49.2983L80 51.7867L84.4277 56.341L99 53.5338L93.6041 49.2983Z" fill="white"/>
<path opacity="0.1" d="M89 68.9691L86 69.4201V65.9504L88.8101 65.3958L89 68.9691Z" fill="white"/>
<path opacity="0.1" d="M73 67.408V70.4262L71 70.0748V67.408H73Z" fill="white"/>
<path opacity="0.1" d="M69 67.408V69.4201L66 68.977V67.408H69Z" fill="white"/>
<path opacity="0.1" d="M77.8197 65.9866C75.8703 68.6106 69.4329 66.7976 69.4329 66.7976L64.6492 61.5457L64 60.8339L65.2694 58.353C65.2694 58.353 65.632 58.479 66.2377 58.7003C69.4437 59.8797 79.4608 63.7786 77.8197 65.9866Z" fill="black"/>
<path d="M77.8197 65.9866C75.8703 68.6106 69.4329 66.7976 69.4329 66.7976L64.6492 61.5457L64 60.8339L65.2694 58.353C65.2694 58.353 65.632 58.479 66.2377 58.7003C69.4437 59.8797 79.4608 63.7786 77.8197 65.9866Z" fill="#EFB7B9"/>
<path opacity="0.1" d="M66 58.6814C65.7634 59.4391 65.1621 60.5612 64.5802 61.3713L64 60.6984L65.1345 58.353C65.1345 58.353 65.4603 58.4721 66 58.6814Z" fill="black"/>
<path d="M49.9463 29.209C49.9463 29.209 45.0471 31.1033 45.0005 36.4073C44.9893 39.8252 45.1763 43.2408 45.5604 46.6365C45.5604 46.6365 44.1606 54.5451 48.1266 56.8183C52.0926 59.0914 55.7787 60.9857 55.7787 60.9857C55.7787 60.9857 62.115 62.0276 62.8933 62.3591C63.6716 62.6906 66.3759 58.4284 65.956 57.7181C65.5361 57.0077 59.7671 55.2555 59.0822 54.0716C58.3972 52.8876 56.71 52.0901 56.71 52.0901C56.71 52.0901 54.9892 50.8986 54.9202 49.9041C54.8511 48.9096 55.3588 48.1992 55.5025 47.773C55.6462 47.3468 56.1669 43.1794 56.1669 43.1794C56.1669 43.1794 58.9515 28.3944 49.9463 29.209Z" fill="#DCE6F2"/>
<path opacity="0.1" d="M51 46.28C51 46.28 44.5262 47.4995 45.0277 51.3105C45.0277 51.3105 47.4877 47.466 51 46.28Z" fill="black"/>
<path opacity="0.1" d="M51 48.2922C51 48.2922 48.6159 51.1112 49.0537 51.3023C49.4914 51.4934 51 48.2922 51 48.2922Z" fill="black"/>
<path d="M123.846 7.05064C123.846 7.05064 116.177 6.68224 117.073 10.9712C117.073 10.9712 116.893 11.7289 117.755 12.0732C117.755 12.0732 117.769 11.7514 118.542 11.8624C118.817 11.8993 119.097 11.9101 119.376 11.8946C119.753 11.8745 120.112 11.7564 120.397 11.5584C120.397 11.5584 122.555 10.8489 123.394 8.03681C123.394 8.03681 124.016 7.42226 124 7.26461L122.704 7.70701C122.704 7.70701 123.146 8.45187 122.797 9.07123C122.797 9.07123 122.756 7.73436 122.506 7.76493C122.456 7.76493 121.834 8.02394 121.834 8.02394C121.834 8.02394 122.595 9.32059 122.02 10.2649C122.02 10.2649 122.238 8.66583 121.596 8.11725L120.684 8.54196C120.684 8.54196 121.574 9.88205 120.97 10.976C120.97 10.976 121.126 9.29807 120.492 8.64492L119.664 9.15811C119.664 9.15811 120.502 10.4805 119.991 11.3878C119.991 11.3878 119.925 9.43481 119.485 9.28681C119.485 9.28681 118.762 9.79517 118.653 10.0043C118.653 10.0043 119.224 10.9696 118.869 11.4699C118.869 11.4699 118.651 10.1684 118.465 10.162C118.465 10.162 117.745 11.0243 117.67 11.6098C117.705 11.0639 117.919 10.5348 118.29 10.0751C117.875 10.1377 117.491 10.296 117.188 10.5304C117.188 10.5304 117.299 9.92066 118.467 9.86757C118.467 9.86757 119.073 9.21281 119.222 9.17259C119.222 9.17259 118.06 9.09537 117.355 9.34472C117.355 9.34472 117.975 8.7704 119.436 9.02297L120.244 8.49209C120.244 8.49209 118.714 8.33121 118.064 8.50978C118.064 8.50978 118.811 8.00142 120.464 8.37143L121.352 7.94833C121.352 7.94833 120.048 7.7231 119.271 7.80515C119.271 7.80515 120.09 7.45283 121.612 7.8341L122.248 7.60727C122.248 7.60727 121.291 7.45766 121.013 7.43353C120.734 7.4094 120.718 7.34826 120.718 7.34826C121.323 7.26797 121.944 7.32368 122.512 7.50914C122.512 7.50914 123.875 7.11821 123.846 7.05064Z" fill="#F47738"/>
<path opacity="0.1" d="M145.883 32.2027C145.883 32.2027 139.293 31.8343 140.063 36.1233C140.063 36.1233 139.908 36.881 140.649 37.2253C140.649 37.2253 140.661 36.9035 141.327 37.0145C141.564 37.0514 141.804 37.0622 142.043 37.0467C142.364 37.0251 142.668 36.9077 142.91 36.7121C142.91 36.7121 144.766 36.001 145.488 33.1889C145.488 33.1889 146.02 32.576 145.999 32.4183L144.886 32.8591C144.886 32.8591 145.266 33.604 144.967 34.2233C144.967 34.2233 144.931 32.8865 144.718 32.917C144.674 32.917 144.138 33.176 144.138 33.176C144.138 33.176 144.794 34.4743 144.3 35.417C144.3 35.417 144.487 33.8179 143.934 33.2693L143.158 33.6892C143.158 33.6892 143.923 35.0293 143.405 36.1233C143.405 36.1233 143.538 34.4453 142.994 33.7922L142.284 34.307C142.284 34.307 143.002 35.6278 142.565 36.5351C142.565 36.5351 142.508 34.5821 142.13 34.4341C142.13 34.4341 141.509 34.9424 141.414 35.1516C141.414 35.1516 141.906 36.1168 141.601 36.6172C141.601 36.6172 141.414 35.3157 141.254 35.3092C141.254 35.3092 140.635 36.1715 140.571 36.7571C140.602 36.2111 140.786 35.6821 141.105 35.2224C140.748 35.2851 140.418 35.4434 140.156 35.6776C140.156 35.6776 140.253 35.0679 141.258 35.0148C141.258 35.0148 141.769 34.3601 141.906 34.3199C141.906 34.3199 140.907 34.2426 140.302 34.492C140.302 34.492 140.834 33.9177 142.088 34.1783L142.782 33.6474C142.782 33.6474 141.466 33.4865 140.909 33.6651C140.909 33.6651 141.551 33.1567 142.971 33.5267L143.734 33.1036C143.734 33.1036 142.612 32.88 141.944 32.9605C141.944 32.9605 142.65 32.6081 143.958 32.9894L144.504 32.7626C144.504 32.7626 143.682 32.613 143.441 32.5888C143.2 32.5647 143.188 32.5036 143.188 32.5036C143.709 32.4232 144.243 32.4789 144.732 32.6645C144.732 32.6645 145.904 32.2703 145.883 32.2027Z" fill="#F47738"/>
<path opacity="0.1" d="M101.752 28.0657C101.752 28.0657 103.356 19.2338 98.4011 19.2028C98.4011 19.2028 97.5784 18.8028 97.0598 19.7172C97.0598 19.7172 97.4134 19.8148 97.1734 20.6863C97.0904 20.9945 97.035 21.3141 97.0085 21.6388C96.973 22.0815 97.0495 22.527 97.2265 22.908C97.2265 22.908 97.6901 25.5988 100.708 27.2847C100.708 27.2847 101.302 28.161 101.481 28.1705L101.188 26.5537C101.188 26.5537 100.283 26.8799 99.6416 26.3155C99.6416 26.3155 101.15 26.6037 101.151 26.3155C101.151 26.256 100.968 25.4678 100.968 25.4678C100.968 25.4678 99.3942 26.025 98.4231 25.1178C98.4231 25.1178 100.184 25.775 100.9 25.1678L100.571 23.9962C100.571 23.9962 98.9215 24.6939 97.7927 23.7153C97.7927 23.7153 99.6526 24.3201 100.484 23.7486L100.036 22.658C100.036 22.658 98.4231 23.2962 97.4831 22.4746C97.4831 22.4746 99.6819 22.889 99.9201 22.4175C99.9201 22.4175 99.462 21.4483 99.244 21.2674C99.244 21.2674 98.0786 21.6912 97.5655 21.1507C97.5655 21.1507 99.0589 21.2245 99.0937 21.0197C99.0937 21.0197 98.238 19.9648 97.5857 19.7267C98.1936 19.9066 98.755 20.289 99.2147 20.8364C99.2079 20.3373 99.0895 19.8516 98.8738 19.4386C98.8738 19.4386 99.5408 19.7243 99.4236 21.1054C99.4236 21.1054 100.065 21.9627 100.085 22.1579C100.085 22.1579 100.351 20.8268 100.18 19.9434C100.18 19.9434 100.73 20.8102 100.211 22.4413L100.681 23.5248C100.681 23.5248 101.106 21.7865 100.998 20.9864C100.998 20.9864 101.454 21.9817 100.781 23.8105L101.12 24.9511C101.12 24.9511 101.573 23.489 101.602 22.5699C101.602 22.5699 101.872 23.6129 101.206 25.2869L101.364 26.0822C101.364 26.0822 101.679 25.0083 101.749 24.6892C101.818 24.3701 101.89 24.3677 101.89 24.3677C101.887 25.0921 101.729 25.8013 101.434 26.4156C101.434 26.4156 101.674 28.0776 101.752 28.0657Z" fill="#F47738"/>
<path opacity="0.1" d="M86 29.799C86 29.799 80.3525 25.9285 78.3337 30.1212C78.3337 30.1212 77.7175 30.7061 78.1598 31.4063C78.1598 31.4063 78.3707 31.1333 78.8999 31.586C79.0874 31.7458 79.2948 31.8846 79.518 31.9997C79.8202 32.1538 80.1691 32.2134 80.5116 32.1692C80.5116 32.1692 82.6137 32.5405 85.0341 30.4535C85.0341 30.4535 85.8982 30.1992 85.9796 30.05L84.7047 29.8448C84.7047 29.8448 84.5715 30.7044 83.9146 31.0892C83.9146 31.0892 84.7269 29.8923 84.516 29.8058C84.4734 29.7872 83.8369 29.7211 83.8369 29.7211C83.8369 29.7211 83.6 31.2164 82.5638 31.781C82.5638 31.781 83.7425 30.4738 83.5963 29.6939L82.6285 29.6465C82.6285 29.6465 82.4638 31.2384 81.3092 31.9234C81.3092 31.9234 82.4879 30.5179 82.4194 29.6499L81.4609 29.7211C81.4609 29.7211 81.2666 31.2689 80.3026 31.8318C80.3026 31.8318 81.485 30.0822 81.2426 29.7499C81.2426 29.7499 80.3673 29.8635 80.1508 29.9957C80.1508 29.9957 79.9824 31.1045 79.3903 31.3859C79.3903 31.3859 80.0472 30.1398 79.914 30.0534C79.914 30.0534 78.8167 30.4789 78.3855 30.9638C78.7585 30.4995 79.2573 30.1325 79.8325 29.8991C79.4746 29.7628 79.0811 29.7251 78.7001 29.7906C78.7001 29.7906 79.1701 29.3057 80.099 29.799C80.099 29.799 80.9687 29.499 81.1167 29.5363C81.1167 29.5363 80.2748 28.931 79.5772 28.8259C79.5772 28.8259 80.4173 28.6055 81.3702 29.504L82.3306 29.4142C82.3306 29.4142 81.2629 28.5665 80.6504 28.4241C80.6504 28.4241 81.5442 28.3207 82.5749 29.4091L83.5223 29.4481C83.5223 29.4481 82.6655 28.6479 82.0197 28.3597C82.0197 28.3597 82.8691 28.4275 83.7943 29.4667L84.4253 29.56C84.4253 29.56 83.7869 28.987 83.587 28.8378C83.3872 28.6886 83.415 28.6258 83.415 28.6258C83.9297 28.8347 84.3711 29.1704 84.6899 29.5956C84.6899 29.5956 85.9759 29.8686 86 29.799Z" fill="#F47738"/>
<path opacity="0.1" d="M174.87 51.3512C174.87 51.3512 167.421 50.6407 168.036 55.1626C168.036 55.1626 167.814 55.9471 168.626 56.341C168.626 56.341 168.66 56.0043 169.413 56.1541C169.679 56.2048 169.951 56.228 170.223 56.2231C170.591 56.2183 170.947 56.1101 171.236 55.9151C171.236 55.9151 173.381 55.2636 174.372 52.3612C174.372 52.3612 175.014 51.7451 175 51.5801L173.712 51.9858C173.712 51.9858 174.105 52.7838 173.712 53.4168C173.712 53.4168 173.753 52.0161 173.515 52.0397C173.466 52.0397 172.844 52.2804 172.844 52.2804C172.844 52.2804 173.505 53.6693 172.888 54.6373C172.888 54.6373 173.198 52.9757 172.606 52.3747L171.692 52.7804C171.692 52.7804 172.479 54.2198 171.822 55.3376C171.822 55.3376 172.075 53.5902 171.499 52.8798L170.663 53.3848C170.663 53.3848 171.395 54.8006 170.842 55.7265C170.842 55.7265 170.899 53.6828 170.481 53.5111C170.481 53.5111 169.747 54.0161 169.625 54.2249C169.625 54.2249 170.125 55.2518 169.747 55.7652C169.747 55.7652 169.615 54.3966 169.442 54.3831C169.442 54.3831 168.687 55.2535 168.577 55.8679C168.645 55.2982 168.887 54.7538 169.277 54.2888C168.869 54.3362 168.486 54.4855 168.176 54.7181C168.176 54.7181 168.321 54.0851 169.462 54.0784C169.462 54.0784 170.083 53.4202 170.249 53.3865C170.249 53.3865 169.122 53.2552 168.42 53.4858C168.42 53.4858 169.059 52.9117 170.465 53.2468L171.291 52.7266C171.291 52.7266 169.812 52.4875 169.169 52.6525C169.169 52.6525 169.928 52.1474 171.513 52.6087L172.404 52.2047C172.404 52.2047 171.147 51.9151 170.386 51.9673C170.386 51.9673 171.206 51.6306 172.663 52.0969L173.297 51.8848C173.297 51.8848 172.374 51.6879 172.103 51.6525C171.832 51.6171 171.822 51.5515 171.822 51.5515C172.416 51.492 173.018 51.5754 173.56 51.7922C173.56 51.7922 174.89 51.4235 174.87 51.3512Z" fill="#F47738"/>
<path opacity="0.1" d="M185.878 57.3876C185.878 57.3876 178.42 56.6788 179.036 61.1991C179.036 61.1991 178.816 61.9837 179.627 62.3776C179.627 62.3776 179.66 62.0409 180.414 62.1924C180.68 62.2419 180.952 62.2645 181.223 62.2598C181.59 62.2534 181.944 62.1459 182.233 61.9534C182.233 61.9534 184.379 61.3018 185.372 58.3977C185.372 58.3977 186.015 57.7832 186 57.6165L184.71 58.0223C184.71 58.0223 185.104 58.8203 184.71 59.4533C184.71 59.4533 184.752 58.0542 184.513 58.0761C184.464 58.0761 183.842 58.3169 183.842 58.3169C183.842 58.3169 184.503 59.7058 183.885 60.6739C183.885 60.6739 184.196 59.0122 183.604 58.4128L182.688 58.8169C182.688 58.8169 183.476 60.2563 182.818 61.3742C182.818 61.3742 183.072 59.6267 182.495 58.9179L181.659 59.423C181.659 59.423 182.391 60.8388 181.84 61.7665C181.84 61.7665 181.895 59.721 181.475 59.5492C181.475 59.5492 180.741 60.0543 180.619 60.2631C180.619 60.2631 181.119 61.29 180.741 61.8035C180.741 61.8035 180.609 60.4348 180.436 60.4213C180.436 60.4213 179.68 61.2917 179.572 61.9062C179.64 61.3368 179.881 60.7924 180.271 60.327C179.862 60.3753 179.479 60.5245 179.168 60.7564C179.168 60.7564 179.316 60.1233 180.458 60.1183C180.458 60.1183 181.078 59.46 181.245 59.4247C181.245 59.4247 180.117 59.295 179.414 59.5257C179.414 59.5257 180.054 58.9499 181.462 59.2849L182.289 58.7647C182.289 58.7647 180.808 58.5256 180.164 58.6906C180.164 58.6906 180.924 58.1856 182.511 58.6485L183.403 58.2428C183.403 58.2428 182.145 57.9532 181.383 58.0054C181.383 58.0054 182.204 57.6687 183.663 58.1351L184.297 57.9246C184.297 57.9246 183.373 57.7276 183.104 57.6906C182.834 57.6536 182.82 57.5896 182.82 57.5896C183.415 57.5312 184.018 57.6151 184.561 57.832C184.561 57.832 185.897 57.46 185.878 57.3876Z" fill="#F47738"/>
<path opacity="0.1" d="M162 1.62863C162 1.62863 154.941 -2.24193 152.417 1.95076C152.417 1.95076 151.647 2.53567 152.2 3.23586C152.2 3.23586 152.463 2.9629 153.125 3.41557C153.359 3.57535 153.619 3.71421 153.897 3.82924C154.275 3.98331 154.711 4.04283 155.14 3.99878C155.14 3.99878 157.767 4.37007 160.795 2.28305C160.795 2.28305 161.873 2.02875 161.975 1.87955L160.386 1.66932C160.386 1.66932 160.219 2.52888 159.398 2.91374C159.398 2.91374 160.413 1.7168 160.15 1.63033C160.096 1.61168 159.303 1.54556 159.303 1.54556C159.303 1.54556 159.005 3.04089 157.709 3.60545C157.709 3.60545 159.183 2.29831 159 1.51844L157.79 1.47096C157.79 1.47096 157.584 3.06293 156.141 3.74786C156.141 3.74786 157.617 2.34239 157.529 1.47436L156.331 1.54556C156.331 1.54556 156.099 3.09345 154.883 3.65631C154.883 3.65631 156.363 1.90668 156.058 1.57438C156.058 1.57438 154.964 1.68797 154.693 1.82021C154.693 1.82021 154.485 2.92899 153.745 3.21043C153.745 3.21043 154.564 1.96432 154.397 1.87786C154.397 1.87786 153.025 2.3034 152.487 2.78828C152.953 2.32402 153.576 1.95701 154.295 1.72357C153.848 1.58727 153.356 1.54956 152.88 1.61507C152.88 1.61507 153.47 1.13019 154.631 1.62355C154.631 1.62355 155.716 1.32346 155.901 1.36076C155.901 1.36076 154.848 0.755513 153.976 0.6504C153.976 0.6504 155.026 0.43 156.217 1.32855L157.418 1.2387C157.418 1.2387 156.086 0.391004 155.318 0.248592C155.318 0.248592 156.435 0.145173 157.723 1.23361L158.91 1.27261C158.91 1.27261 157.837 0.472384 157.029 0.184169C157.029 0.184169 158.093 0.251984 159.247 1.29125L160.036 1.3845C160.036 1.3845 159.238 0.81146 158.988 0.662266C158.739 0.513072 158.776 0.463906 158.776 0.463906C159.418 0.673107 159.969 1.00879 160.367 1.43367C160.367 1.43367 161.97 1.69814 162 1.62863Z" fill="#F47738"/>
<path opacity="0.1" d="M166 32.9736C166 32.9736 163.87 26.2913 159.079 28.6902C159.079 28.6902 158.119 28.8234 158 29.6881C158 29.6881 158.381 29.5805 158.512 30.2792C158.561 30.5302 158.643 30.7751 158.755 31.0089C158.905 31.3232 159.166 31.5846 159.496 31.7532C159.496 31.7532 161.064 33.322 164.68 32.9718C164.68 32.9718 165.615 33.2673 165.793 33.187L164.836 32.2494C164.836 32.2494 164.101 32.9097 163.25 32.8477C163.25 32.8477 164.822 32.3004 164.7 32.1052C164.676 32.0651 164.17 31.6291 164.17 31.6291C164.17 31.6291 162.886 32.7711 161.574 32.6379C161.574 32.6379 163.544 32.2184 163.977 31.4631L163.167 30.8465C163.167 30.8465 161.875 32.1125 160.375 32.014C160.375 32.014 162.416 31.5087 162.979 30.7225L162.092 30.2135C162.092 30.2135 160.806 31.4266 159.559 31.3354C159.559 31.3354 161.853 30.5382 161.882 30.1095C161.882 30.1095 161.035 29.6863 160.75 29.6717C160.75 29.6717 159.804 30.5218 159.085 30.4123C159.085 30.4123 160.555 29.7319 160.503 29.5786C160.503 29.5786 159.239 29.2922 158.512 29.451C159.171 29.2751 159.869 29.2568 160.537 29.398C160.323 29.068 160.006 28.8016 159.626 28.6319C159.626 28.6319 160.387 28.495 160.841 29.471C160.841 29.471 161.815 29.7301 161.916 29.8505C161.916 29.8505 161.618 28.8307 161.086 28.3254C161.086 28.3254 161.977 28.6355 162.157 29.9782L163.06 30.4725C163.06 30.4725 162.744 29.1043 162.307 28.6227C162.307 28.6227 163.161 29.066 163.277 30.613L164.087 31.2095C164.087 31.2095 163.914 30.0128 163.558 29.3853C163.558 29.3853 164.253 29.9508 164.309 31.392L164.791 31.848C164.791 31.848 164.649 30.976 164.589 30.7279C164.528 30.4798 164.589 30.4452 164.589 30.4452C164.888 30.9304 165.032 31.4812 165.004 32.0359C165.004 32.0359 165.927 33.0174 166 32.9736Z" fill="#F47738"/>
<path opacity="0.1" d="M122 48.2448C122 48.2448 117.731 41.5314 113.767 45.5494C113.767 45.5494 112.86 45.9667 113.019 46.9576C113.019 46.9576 113.363 46.7281 113.719 47.4583C113.846 47.717 114.005 47.9594 114.191 48.1801C114.44 48.4813 114.782 48.6924 115.163 48.7809C115.163 48.7809 117.221 50.0493 120.69 48.614C120.69 48.614 121.712 48.6683 121.862 48.5285L120.608 47.7775C120.608 47.7775 120.092 48.7162 119.229 48.8936C119.229 48.8936 120.612 47.8505 120.426 47.6585C120.391 47.621 119.747 47.2914 119.747 47.2914C119.747 47.2914 118.843 48.9144 117.501 49.1502C117.501 49.1502 119.317 48.1175 119.505 47.162L118.504 46.7219C118.504 46.7219 117.633 48.4847 116.116 48.808C116.116 48.808 117.975 47.6627 118.278 46.6363L117.233 46.3359C117.233 46.3359 116.352 48.0403 115.087 48.3011C115.087 48.3011 117.102 46.7615 116.991 46.2817C116.991 46.2817 116.017 46.0626 115.737 46.1294C115.737 46.1294 115.075 47.3373 114.327 47.4249C114.327 47.4249 115.564 46.2525 115.461 46.0981C115.461 46.0981 114.118 46.1502 113.449 46.5362C114.046 46.1504 114.733 45.9274 115.443 45.8895C115.125 45.5892 114.726 45.3884 114.295 45.3116C114.295 45.3116 115.004 44.9423 115.758 45.8811C115.758 45.8811 116.803 45.8811 116.947 45.9854C116.947 45.9854 116.32 44.9423 115.633 44.5522C115.633 44.5522 116.615 44.6357 117.225 46.0564L118.28 46.3359C118.28 46.3359 117.526 44.9277 116.939 44.5251C116.939 44.5251 117.927 44.7629 118.54 46.4298L119.526 46.847C119.526 46.847 118.97 45.5849 118.412 44.9945C118.412 44.9945 119.281 45.4117 119.802 46.9785L120.429 47.3394C120.429 47.3394 120.011 46.4235 119.862 46.1711C119.714 45.9187 119.772 45.8603 119.772 45.8603C120.225 46.3062 120.544 46.8688 120.694 47.4854C120.694 47.4854 121.944 48.3157 122 48.2448Z" fill="#F47738"/>
<path d="M147 16.5588C147 16.5588 143.825 12.4773 140.627 14.8C140.627 14.8 139.908 15.0365 140.01 15.6265C140.01 15.6265 140.283 15.4946 140.544 15.9364C140.638 16.0935 140.756 16.2415 140.895 16.3771C141.083 16.5606 141.345 16.6919 141.641 16.7505C141.641 16.7505 143.217 17.5447 145.964 16.7505C145.964 16.7505 146.761 16.8015 146.882 16.7206L145.923 16.2501C145.923 16.2501 145.498 16.7991 144.819 16.8899C144.819 16.8899 145.925 16.2887 145.786 16.1754C145.757 16.1518 145.263 15.9427 145.263 15.9427C145.263 15.9427 144.516 16.8949 143.466 17.0107C143.466 17.0107 144.91 16.4281 145.078 15.863L144.307 15.5867C144.307 15.5867 143.583 16.6235 142.389 16.7891C142.389 16.7891 143.871 16.1406 144.132 15.5344L143.325 15.3352C143.325 15.3352 142.593 16.331 141.6 16.468C141.6 16.468 143.211 15.5867 143.136 15.2991C143.136 15.2991 142.381 15.1498 142.155 15.1846C142.155 15.1846 141.608 15.8929 141.021 15.9315C141.021 15.9315 142.016 15.2568 141.941 15.1622C141.941 15.1622 140.889 15.1684 140.358 15.3863C140.834 15.1677 141.376 15.0475 141.931 15.0377C141.69 14.8527 141.383 14.7255 141.047 14.6718C141.047 14.6718 141.611 14.4639 142.191 15.0377C142.191 15.0377 143.008 15.0589 143.118 15.1224C143.118 15.1224 142.655 14.5 142.126 14.2436C142.126 14.2436 142.891 14.3108 143.333 15.1697L144.15 15.3564C144.15 15.3564 143.596 14.5025 143.145 14.251C143.145 14.251 143.913 14.4116 144.351 15.4161L145.111 15.6862C145.111 15.6862 144.708 14.9232 144.294 14.566C144.294 14.566 144.962 14.8311 145.333 15.7746L145.812 16.0012C145.812 16.0012 145.505 15.4473 145.397 15.2941C145.289 15.141 145.335 15.1074 145.335 15.1074C145.677 15.3817 145.913 15.723 146.016 16.0933C146.016 16.0933 146.953 16.5999 147 16.5588Z" fill="#F47738"/>
<path d="M123.999 30.0433C123.999 30.0433 124.185 23.2858 119.255 24.2382C119.255 24.2382 118.372 24.1088 118 24.8785C118 24.8785 118.372 24.8785 118.268 25.5614C118.234 25.8048 118.23 26.0513 118.257 26.2956C118.291 26.627 118.438 26.9387 118.676 27.1825C118.676 27.1825 119.564 29.0519 122.844 29.6868C122.844 29.6868 123.573 30.21 123.755 30.1817L123.196 29.0607C123.196 29.0607 122.349 29.4758 121.621 29.1937C121.621 29.1937 123.167 29.1068 123.124 28.8905C123.124 28.8461 122.803 28.3069 122.803 28.3069C122.803 28.3069 121.325 29.0252 120.216 28.5535C120.216 28.5535 122.079 28.6865 122.688 28.103L122.168 27.3172C122.168 27.3172 120.645 28.1473 119.36 27.6578C119.36 27.6578 121.306 27.7323 122.043 27.1523L121.423 26.4428C121.423 26.4428 119.92 27.2268 118.855 26.8118C118.855 26.8118 121.112 26.6823 121.276 26.2903C121.276 26.2903 120.665 25.6749 120.419 25.5809C120.419 25.5809 119.328 26.113 118.732 25.8256C118.732 25.8256 120.222 25.588 120.231 25.4301C120.231 25.4301 119.212 24.8288 118.525 24.7845C119.159 24.7953 119.779 24.9641 120.323 25.274C120.238 24.9115 120.043 24.5805 119.764 24.3216C119.764 24.3216 120.473 24.3979 120.57 25.4212C120.57 25.4212 121.347 25.9214 121.397 26.0597C121.397 26.0597 121.451 25.0364 121.14 24.4262C121.14 24.4262 121.826 24.9495 121.569 26.2407L122.207 26.9395C122.207 26.9395 122.353 25.588 122.12 25.0257C122.12 25.0257 122.731 25.6625 122.355 27.1275L122.87 27.8919C122.87 27.8919 123.09 26.7373 122.973 26.058C122.973 26.058 123.405 26.7674 123.01 28.1172L123.293 28.667C123.293 28.667 123.437 27.821 123.455 27.5744C123.474 27.3279 123.545 27.3119 123.545 27.3119C123.657 27.841 123.612 28.3894 123.416 28.8958C123.416 28.8958 123.917 30.0664 123.999 30.0433Z" fill="#F47738"/>
<path opacity="0.1" d="M113.5 134.816C115.985 134.816 118 134.365 118 133.81C118 133.254 115.985 132.804 113.5 132.804C111.015 132.804 109 133.254 109 133.81C109 134.365 111.015 134.816 113.5 134.816Z" fill="#F47738"/>
<path opacity="0.1" d="M17.5 127.773C20.5376 127.773 23 127.548 23 127.27C23 126.992 20.5376 126.767 17.5 126.767C14.4624 126.767 12 126.992 12 127.27C12 127.548 14.4624 127.773 17.5 127.773Z" fill="#F47738"/>
<path opacity="0.1" d="M152 132.804C154.761 132.804 157 132.578 157 132.301C157 132.023 154.761 131.798 152 131.798C149.239 131.798 147 132.023 147 132.301C147 132.578 149.239 132.804 152 132.804Z" fill="#F47738"/>
<path d="M157 122.743C160.866 122.743 164 122.292 164 121.737C164 121.181 160.866 120.731 157 120.731C153.134 120.731 150 121.181 150 121.737C150 122.292 153.134 122.743 157 122.743Z" fill="#F47738"/>
<path d="M160.327 119.466C160.639 119.163 160.866 118.753 160.978 118.291C161.063 117.823 160.897 117.264 160.524 117.093C160.106 116.902 159.658 117.248 159.318 117.597C158.978 117.947 158.592 118.348 158.148 118.274C158.376 118.027 158.546 117.713 158.643 117.364C158.739 117.014 158.759 116.641 158.699 116.28C158.68 116.13 158.627 115.99 158.546 115.873C158.313 115.576 157.893 115.704 157.614 115.938C156.729 116.682 156.483 118.118 156.477 119.411C156.389 118.945 156.464 118.459 156.462 117.988C156.46 117.516 156.35 116.971 156.011 116.723C155.804 116.584 155.569 116.514 155.331 116.52C154.933 116.503 154.489 116.55 154.219 116.898C153.878 117.329 153.969 118.055 154.261 118.524C154.554 118.994 155.001 119.297 155.413 119.627C155.742 119.862 156.023 120.182 156.236 120.564C156.26 120.617 156.28 120.673 156.295 120.731H158.789C159.347 120.395 159.865 119.969 160.327 119.466Z" fill="#F47738"/>
<path d="M14 122.457C14 122.457 16.9536 122.359 17.8483 121.673C18.7431 120.986 22.3951 120.169 22.6164 121.269C22.8377 122.369 27.0574 126.737 23.7209 126.766C20.3844 126.795 15.9684 126.205 15.0795 125.618C14.1905 125.032 14 122.457 14 122.457Z" fill="#A8A8A8"/>
<path opacity="0.2" d="M23.7808 126.413C20.4429 126.44 16.0251 125.888 15.1357 125.341C14.4581 124.925 14.1887 123.432 14.0982 122.743H14C14 122.743 14.1925 125.149 15.0761 125.694C15.9596 126.24 20.3832 126.793 23.7212 126.766C24.6837 126.766 25.0167 126.413 24.9994 125.9C24.8646 126.213 24.4969 126.407 23.7808 126.413Z" fill="black"/>
<defs>
<linearGradient id="paint0_linear_1887_3365" x1="42.0247" y1="67.4229" x2="101" y2="67.4229" gradientUnits="userSpaceOnUse">
<stop stop-color="#808080" stop-opacity="0.25"/>
<stop offset="0.54" stop-color="#808080" stop-opacity="0.12"/>
<stop offset="1" stop-color="#808080" stop-opacity="0.1"/>
</linearGradient>
</defs>
</svg>
